<svg width="35" height="35" viewBox="0 0 35 35" fill="none" xmlns="http://www.w3.org/2000/svg">
<g clip-path="url(#clip0_1_426)">
<path d="M26.9201 0H8.60565C4.14325 0 0.525757 3.61749 0.525757 8.0799V26.3943C0.525757 30.8567 4.14325 34.4742 8.60565 34.4742H26.9201C31.3825 34.4742 35 30.8567 35 26.3943V8.0799C35 3.61749 31.3825 0 26.9201 0Z" fill="url(#paint0_radial_1_426)"/>
<path d="M26.9201 0H8.60565C4.14325 0 0.525757 3.61749 0.525757 8.0799V26.3943C0.525757 30.8567 4.14325 34.4742 8.60565 34.4742H26.9201C31.3825 34.4742 35 30.8567 35 26.3943V8.0799C35 3.61749 31.3825 0 26.9201 0Z" fill="url(#paint1_radial_1_426)"/>
<path d="M17.7641 3.77051C14.1069 3.77051 13.6478 3.78653 12.2115 3.85185C10.7778 3.91756 9.7992 4.14447 8.943 4.4775C8.05717 4.82143 7.30588 5.28158 6.55741 6.03032C5.80827 6.77892 5.34812 7.53022 5.00311 8.41564C4.66914 9.27211 4.44196 10.2511 4.37745 11.6841C4.31322 13.1206 4.29639 13.5798 4.29639 17.2371C4.29639 20.8945 4.31255 21.3521 4.37772 22.7884C4.44371 24.2221 4.67062 25.2007 5.00338 26.0569C5.34758 26.9427 5.80773 27.694 6.55647 28.4425C7.3048 29.1916 8.0561 29.6528 8.94125 29.9968C9.79812 30.3298 10.7769 30.5567 12.2102 30.6224C13.6467 30.6877 14.1054 30.7038 17.7625 30.7038C21.4201 30.7038 21.8777 30.6877 23.314 30.6224C24.7477 30.5567 25.7274 30.3298 26.5842 29.9968C27.4697 29.6528 28.2199 29.1916 28.9681 28.4425C29.7172 27.694 30.1772 26.9427 30.5224 26.0573C30.8534 25.2007 31.0807 24.2218 31.148 22.7887C31.2125 21.3524 31.2294 20.8945 31.2294 17.2371C31.2294 13.5798 31.2125 13.1208 31.148 11.6844C31.0807 10.2507 30.8534 9.27224 30.5224 8.41604C30.1772 7.53022 29.7172 6.77892 28.9681 6.03032C28.2191 5.28131 27.4699 4.82116 26.5834 4.47763C25.7249 4.14447 24.7458 3.91743 23.3122 3.85185C21.8757 3.78653 21.4184 3.77051 17.7599 3.77051H17.7641ZM16.556 6.1973C16.9146 6.19677 17.3147 6.1973 17.7641 6.1973C21.3598 6.1973 21.7859 6.21023 23.2058 6.27474C24.5188 6.3348 25.2314 6.55417 25.7061 6.73852C26.3346 6.98254 26.7826 7.27436 27.2537 7.74582C27.725 8.21714 28.0167 8.66598 28.2614 9.29446C28.4457 9.76848 28.6654 10.4811 28.7251 11.7941C28.7897 13.2138 28.8037 13.6401 28.8037 17.234C28.8037 20.828 28.7897 21.2545 28.7251 22.674C28.6651 23.9869 28.4457 24.6996 28.2614 25.1738C28.0173 25.8022 27.725 26.2497 27.2537 26.7208C26.7823 27.1921 26.3348 27.4838 25.7061 27.7279C25.2319 27.9131 24.5188 28.1319 23.2058 28.192C21.7861 28.2565 21.3598 28.2705 17.7641 28.2705C14.1683 28.2705 13.7421 28.2565 12.3226 28.192C11.0096 28.1314 10.2969 27.912 9.82182 27.7277C9.19348 27.4835 8.7445 27.1918 8.27318 26.7205C7.80185 26.2492 7.51017 25.8014 7.26548 25.1727C7.08112 24.6985 6.86148 23.9859 6.80169 22.6729C6.73719 21.2533 6.72426 20.8269 6.72426 17.2307C6.72426 13.6346 6.73719 13.2104 6.80169 11.7907C6.86175 10.4778 7.08112 9.76512 7.26548 9.29042C7.50963 8.66194 7.80185 8.2131 8.27331 7.74178C8.74464 7.27045 9.19348 6.97863 9.82196 6.73408C10.2967 6.54892 11.0096 6.33008 12.3226 6.26975C13.5648 6.2136 14.0463 6.19677 16.556 6.19394V6.1973ZM24.9525 8.43328C24.0604 8.43328 23.3365 9.15643 23.3365 10.0487C23.3365 10.9409 24.0604 11.6647 24.9525 11.6647C25.8447 11.6647 26.5685 10.9409 26.5685 10.0487C26.5685 9.15657 25.8447 8.43274 24.9525 8.43274V8.43328ZM17.7641 10.3214C13.945 10.3214 10.8485 13.4179 10.8485 17.2371C10.8485 21.0564 13.945 24.1514 17.7641 24.1514C21.5833 24.1514 24.6787 21.0564 24.6787 17.2371C24.6787 13.418 21.5831 10.3214 17.7638 10.3214H17.7641ZM17.7641 12.7482C20.2431 12.7482 22.253 14.7578 22.253 17.2371C22.253 19.7162 20.2431 21.7261 17.7641 21.7261C15.2849 21.7261 13.2753 19.7162 13.2753 17.2371C13.2753 14.7578 15.2849 12.7482 17.7641 12.7482Z" fill="white"/>
</g>
<defs>
<radialGradient id="paint0_radial_1_426" cx="0" cy="0" r="1" gradientUnits="userSpaceOnUse" gradientTransform="translate(9.68297 37.1294) rotate(-90) scale(34.1665 31.7776)">
<stop stop-color="#FFDD55"/>
<stop offset="0.1" stop-color="#FFDD55"/>
<stop offset="0.5" stop-color="#FF543E"/>
<stop offset="1" stop-color="#C837AB"/>
</radialGradient>
<radialGradient id="paint1_radial_1_426" cx="0" cy="0" r="1" gradientUnits="userSpaceOnUse" gradientTransform="translate(-5.24881 2.48336) rotate(78.681) scale(15.2726 62.9542)">
<stop stop-color="#3771C8"/>
<stop offset="0.128" stop-color="#3771C8"/>
<stop offset="1" stop-color="#6600FF" stop-opacity="0"/>
</radialGradient>
<clipPath id="clip0_1_426">
<rect width="34.4742" height="34.4742" fill="white" transform="translate(0.525757)"/>
</clipPath>
</defs>
</svg>
