<svg width="33" height="33" viewBox="0 0 33 33" fill="none" xmlns="http://www.w3.org/2000/svg">
<path d="M16.5 28.05L15.972 27.456C15.642 27.126 7.92001 18.018 7.92001 12.54C7.92001 7.78796 11.748 3.95996 16.5 3.95996C21.252 3.95996 25.08 7.78796 25.08 12.54C25.08 18.018 17.358 27.126 17.028 27.522L16.5 28.05ZM16.5 5.27996C12.474 5.27996 9.24001 8.51396 9.24001 12.54C9.24001 16.764 14.784 23.892 16.5 26.004C18.216 23.892 23.76 16.764 23.76 12.54C23.76 8.51396 20.526 5.27996 16.5 5.27996Z" fill="#545454"/>
<path d="M16.5 15.84C14.652 15.84 13.2 14.388 13.2 12.54C13.2 10.692 14.652 9.23999 16.5 9.23999C18.348 9.23999 19.8 10.692 19.8 12.54C19.8 14.388 18.348 15.84 16.5 15.84ZM16.5 10.56C15.378 10.56 14.52 11.418 14.52 12.54C14.52 13.662 15.378 14.52 16.5 14.52C17.622 14.52 18.48 13.662 18.48 12.54C18.48 11.418 17.622 10.56 16.5 10.56Z" fill="black"/>
</svg>
