<svg width="35" height="35" viewBox="0 0 35 35" fill="none" xmlns="http://www.w3.org/2000/svg">
<g clip-path="url(#clip0_1_431)">
<path d="M34.4742 17.2371C34.4742 7.71738 26.7568 0 17.2371 0C7.71738 0 0 7.71724 0 17.2371C0 25.8406 6.3034 32.9718 14.5438 34.2648V22.2197H10.1672V17.2371H14.5438V13.4396C14.5438 9.11951 17.1173 6.73325 21.0545 6.73325C22.9404 6.73325 24.913 7.06991 24.913 7.06991V11.3119H22.7395C20.5981 11.3119 19.9304 12.6406 19.9304 14.0038V17.2371H24.711L23.9468 22.2197H19.9304V34.2648C28.1708 32.9718 34.4742 25.8407 34.4742 17.2371Z" fill="#1877F2"/>
<path d="M23.9468 22.2196L24.711 17.237H19.9304V14.0037C19.9304 12.6404 20.5982 11.3118 22.7395 11.3118H24.913V7.06982C24.913 7.06982 22.9404 6.73315 21.0545 6.73315C17.1173 6.73315 14.5438 9.11942 14.5438 13.4395V17.237H10.1672V22.2196H14.5438V34.2647C15.4348 34.4044 16.3353 34.4744 17.2371 34.4741C18.139 34.4744 19.0395 34.4044 19.9304 34.2647V22.2196H23.9468Z" fill="white"/>
</g>
<defs>
<clipPath id="clip0_1_431">
<rect width="34.4742" height="34.4742" fill="white"/>
</clipPath>
</defs>
</svg>
