<svg width="36" height="35" viewBox="0 0 36 35" fill="none" xmlns="http://www.w3.org/2000/svg">
<g clip-path="url(#clip0_1_434)">
<path d="M18 0C13.4295 0 9.04208 1.81717 5.81281 5.04859C2.58022 8.28129 0.763774 12.6655 0.762878 17.2371C0.762878 21.8068 2.58086 26.1942 5.81281 29.4256C9.04208 32.6571 13.4295 34.4742 18 34.4742C22.5705 34.4742 26.9579 32.6571 30.1872 29.4256C33.4191 26.1942 35.2371 21.8068 35.2371 17.2371C35.2371 12.6674 33.4191 8.28001 30.1872 5.04859C26.9579 1.81717 22.5705 0 18 0Z" fill="url(#paint0_linear_1_434)"/>
<path d="M8.56537 17.055C13.5911 14.8659 16.9415 13.4226 18.6168 12.7253C23.4054 10.7341 24.3993 10.3883 25.0484 10.3766C25.1911 10.3743 25.5089 10.4096 25.7163 10.5772C25.8887 10.7186 25.9371 10.9098 25.9614 11.0441C25.9829 11.1782 26.0126 11.4839 25.9883 11.7225C25.7298 14.4482 24.6067 21.0624 24.0357 24.1152C23.796 25.4069 23.3193 25.84 22.8587 25.8823C21.8568 25.9744 21.0973 25.2208 20.1277 24.5855C18.6114 23.5908 17.7549 22.9719 16.2817 22.0015C14.5795 20.88 15.6838 20.2635 16.6533 19.2562C16.9065 18.9926 21.3181 14.9809 21.4016 14.617C21.4124 14.5715 21.4232 14.4018 21.3208 14.3124C21.2212 14.2227 21.0731 14.2534 20.9653 14.2777C20.8118 14.3122 18.3905 15.9141 13.6934 19.0833C13.0066 19.5557 12.3845 19.786 11.8243 19.7739C11.2102 19.7607 10.0251 19.4259 9.14443 19.1399C8.06711 18.789 7.20795 18.6034 7.28336 18.0074C7.32107 17.6971 7.7493 17.3795 8.56537 17.055Z" fill="white"/>
</g>
<defs>
<linearGradient id="paint0_linear_1_434" x1="1724.47" y1="0" x2="1724.47" y2="3447.42" gradientUnits="userSpaceOnUse">
<stop stop-color="#2AABEE"/>
<stop offset="1" stop-color="#229ED9"/>
</linearGradient>
<clipPath id="clip0_1_434">
<rect width="34.4742" height="34.4742" fill="white" transform="translate(0.762878)"/>
</clipPath>
</defs>
</svg>
