<svg width="20" height="21" viewBox="0 0 20 21" fill="none" xmlns="http://www.w3.org/2000/svg">
<path d="M18.6879 1.70932H15.7865V0.477317C15.7865 0.368401 15.7428 0.263947 15.6651 0.186932C15.5873 0.109917 15.4819 0.0666504 15.372 0.0666504C15.262 0.0666504 15.1566 0.109917 15.0789 0.186932C15.0011 0.263947 14.9575 0.368401 14.9575 0.477317V1.70932H5.83863V0.477317C5.83863 0.368401 5.79496 0.263947 5.71723 0.186932C5.63949 0.109917 5.53407 0.0666504 5.42414 0.0666504C5.31421 0.0666504 5.20878 0.109917 5.13105 0.186932C5.05331 0.263947 5.00964 0.368401 5.00964 0.477317V1.70932H2.10819C1.7784 1.70932 1.46212 1.83912 1.22892 2.07016C0.995724 2.30121 0.864716 2.61457 0.864716 2.94132V19.368C0.864716 19.6947 0.995724 20.0081 1.22892 20.2391C1.46212 20.4702 1.7784 20.6 2.10819 20.6H18.6879C19.0177 20.6 19.334 20.4702 19.5672 20.2391C19.8004 20.0081 19.9314 19.6947 19.9314 19.368V2.94132C19.9314 2.61457 19.8004 2.30121 19.5672 2.07016C19.334 1.83912 19.0177 1.70932 18.6879 1.70932ZM2.10819 2.53065H5.00964V3.76265C5.00964 3.87157 5.05331 3.97602 5.13105 4.05304C5.20878 4.13005 5.31421 4.17332 5.42414 4.17332C5.53407 4.17332 5.63949 4.13005 5.71723 4.05304C5.79496 3.97602 5.83863 3.87157 5.83863 3.76265V2.53065H14.9575V3.76265C14.9575 3.87157 15.0011 3.97602 15.0789 4.05304C15.1566 4.13005 15.262 4.17332 15.372 4.17332C15.4819 4.17332 15.5873 4.13005 15.6651 4.05304C15.7428 3.97602 15.7865 3.87157 15.7865 3.76265V2.53065H18.6879C18.7978 2.53065 18.9033 2.57392 18.981 2.65093C19.0587 2.72795 19.1024 2.8324 19.1024 2.94132V6.63732H1.6937V2.94132C1.6937 2.8324 1.73737 2.72795 1.8151 2.65093C1.89284 2.57392 1.99826 2.53065 2.10819 2.53065ZM18.6879 19.7786H2.10819C1.99826 19.7786 1.89284 19.7354 1.8151 19.6584C1.73737 19.5814 1.6937 19.4769 1.6937 19.368V7.45865H19.1024V19.368C19.1024 19.4769 19.0587 19.5814 18.981 19.6584C18.9033 19.7354 18.7978 19.7786 18.6879 19.7786ZM8.32559 10.3333V16.904C8.32559 17.0129 8.28192 17.1174 8.20418 17.1944C8.12645 17.2714 8.02102 17.3146 7.91109 17.3146C7.80116 17.3146 7.69573 17.2714 7.618 17.1944C7.54027 17.1174 7.4966 17.0129 7.4966 16.904V10.9976L6.43861 11.5222C6.34022 11.5709 6.22632 11.579 6.12196 11.5445C6.01761 11.51 5.93134 11.4359 5.88215 11.3384C5.83296 11.2409 5.82486 11.1281 5.85965 11.0247C5.89443 10.9213 5.96925 10.8358 6.06764 10.7871L7.72561 9.96577C7.78882 9.93443 7.85908 9.91963 7.9297 9.92277C8.00032 9.92591 8.06895 9.9469 8.12907 9.98373C8.1892 10.0206 8.23882 10.072 8.27321 10.1332C8.30761 10.1944 8.32564 10.2633 8.32559 10.3333ZM14.543 13.208L12.056 16.4933H14.543C14.6529 16.4933 14.7583 16.5366 14.8361 16.6136C14.9138 16.6906 14.9575 16.7951 14.9575 16.904C14.9575 17.0129 14.9138 17.1174 14.8361 17.1944C14.7583 17.2714 14.6529 17.3146 14.543 17.3146H11.227C11.1501 17.3146 11.0746 17.2934 11.0091 17.2533C10.9436 17.2132 10.8907 17.1559 10.8563 17.0876C10.8219 17.0194 10.8073 16.9431 10.8142 16.8671C10.8211 16.7911 10.8493 16.7186 10.8954 16.6576L13.8777 12.7183C14.0413 12.5049 14.1295 12.244 14.1285 11.976C14.1288 11.7045 14.0386 11.4406 13.8719 11.2251C13.7052 11.0097 13.4714 10.8548 13.2067 10.7846C12.9421 10.7143 12.6614 10.7327 12.4084 10.8367C12.1553 10.9408 11.944 11.1247 11.8073 11.36C11.75 11.4494 11.66 11.5133 11.5561 11.5385C11.4523 11.5637 11.3427 11.5482 11.2501 11.4952C11.1575 11.4422 11.0892 11.3558 11.0594 11.2541C11.0297 11.1524 11.0407 11.0432 11.0903 10.9493C11.3184 10.5579 11.6705 10.252 12.092 10.079C12.5134 9.90606 12.9807 9.87572 13.4214 9.99271C13.8621 10.1097 14.2515 10.3675 14.5292 10.7261C14.8069 11.0846 14.9574 11.524 14.9575 11.976C14.9591 12.4205 14.8135 12.8533 14.543 13.208Z" fill="black"/>
</svg>
