<svg width="29" height="28" viewBox="0 0 29 28" fill="none" xmlns="http://www.w3.org/2000/svg">
<path opacity="0.9" d="M18.8038 13.5767L24.387 19.1599L23.5946 19.9517L18.0114 14.3685L18.8038 13.5767ZM11.2337 13.6007L12.0255 14.3926L6.48154 19.9366L5.6897 19.147L11.2337 13.6007Z" fill="black"/>
<path d="M14.9981 16.7441C14.1581 16.7441 13.2621 16.4081 12.6461 15.7361L5.64606 8.79206L6.43006 8.00806L13.4301 15.0081C14.3261 15.9041 15.7261 15.9041 16.6221 15.0081L23.6221 8.00806L24.4061 8.79206L17.3501 15.7921C16.7341 16.4081 15.8381 16.7441 14.9981 16.7441Z" fill="black"/>
<path d="M22.838 21.28H7.15803C6.20603 21.28 5.47803 20.552 5.47803 19.6V8.39997C5.47803 7.44797 6.20603 6.71997 7.15803 6.71997H22.838C23.79 6.71997 24.518 7.44797 24.518 8.39997V19.6C24.518 20.552 23.79 21.28 22.838 21.28ZM7.15803 7.83997C6.82203 7.83997 6.59803 8.06397 6.59803 8.39997V19.6C6.59803 19.936 6.82203 20.16 7.15803 20.16H22.838C23.174 20.16 23.398 19.936 23.398 19.6V8.39997C23.398 8.06397 23.174 7.83997 22.838 7.83997H7.15803Z" fill="black"/>
</svg>
