<svg width="29" height="28" viewBox="0 0 29 28" fill="none" xmlns="http://www.w3.org/2000/svg">
<path fill-rule="evenodd" clip-rule="evenodd" d="M14.998 14C17.5764 14 19.6647 11.9117 19.6647 9.33333C19.6647 6.755 17.5764 4.66667 14.998 4.66667C12.4197 4.66667 10.3314 6.755 10.3314 9.33333C10.3314 11.9117 12.4197 14 14.998 14ZM20.8314 9.33333C20.8314 12.5562 18.221 15.1667 14.998 15.1667C11.7751 15.1667 9.16471 12.5562 9.16471 9.33333C9.16471 6.11042 11.7751 3.5 14.998 3.5C18.221 3.5 20.8314 6.11042 20.8314 9.33333ZM6.37813 19.957C5.79305 20.4295 5.66471 20.7836 5.66471 21V23.3333H24.3314V21C24.3314 20.7842 24.203 20.4289 23.6174 19.957C23.0457 19.4956 22.1929 19.0557 21.1592 18.6754C19.093 17.9153 16.604 17.5 14.998 17.5C13.3921 17.5 10.903 17.9153 8.83688 18.6754C7.80321 19.0557 6.95038 19.4956 6.37813 19.957ZM14.998 16.3333C11.4934 16.3333 4.49805 18.1037 4.49805 21V24.5H25.498V21C25.498 18.1037 18.5027 16.3333 14.998 16.3333Z" fill="black"/>
</svg>
