<svg width="29" height="28" viewBox="0 0 29 28" fill="none" xmlns="http://www.w3.org/2000/svg">
<path d="M25.1459 17.733L19.9812 15.4219C19.781 15.3352 19.5623 15.2998 19.345 15.3189C19.1277 15.338 18.9185 15.411 18.7365 15.5312C18.7219 15.5405 18.7081 15.5507 18.6949 15.5619L15.9824 17.8741C15.9221 17.9109 15.8536 17.9322 15.783 17.9362C15.7124 17.9402 15.6419 17.9268 15.5777 17.897C13.8015 17.0395 11.9629 15.2152 11.1054 13.4597C11.0751 13.396 11.061 13.3258 11.0644 13.2554C11.0679 13.185 11.0887 13.1165 11.1251 13.0561L13.4438 10.2987C13.4548 10.2856 13.4646 10.2714 13.4745 10.2572C13.5943 10.0754 13.6671 9.86666 13.6862 9.64976C13.7053 9.43285 13.6701 9.21461 13.5838 9.01468L11.2684 3.85875C11.1566 3.59761 10.9631 3.37978 10.717 3.23798C10.4708 3.09618 10.1854 3.03806 9.90337 3.07234C8.52696 3.25381 7.26368 3.93013 6.34948 4.97496C5.43528 6.01979 4.93268 7.36168 4.93556 8.75C4.93556 17.1937 11.8043 24.0625 20.2481 24.0625C21.6364 24.0654 22.9783 23.5628 24.0231 22.6486C25.0679 21.7344 25.7442 20.4711 25.9257 19.0947C25.9597 18.814 25.9022 18.5298 25.7617 18.2844C25.6212 18.0391 25.4052 17.8457 25.1459 17.733ZM25.0606 18.9853C24.9061 20.151 24.3324 21.2205 23.4467 21.9939C22.561 22.7672 21.4239 23.1916 20.2481 23.1875C12.2877 23.1875 5.81056 16.7103 5.81056 8.75C5.80649 7.57416 6.23081 6.43708 7.0042 5.55137C7.77759 4.66566 8.84709 4.09195 10.0127 3.9375C10.0302 3.93641 10.0478 3.93641 10.0652 3.9375C10.1516 3.93823 10.2357 3.96448 10.3071 4.01294C10.3786 4.0614 10.4341 4.12991 10.4667 4.20984L12.7756 9.36578C12.8025 9.42879 12.8143 9.49725 12.8099 9.56565C12.8055 9.63404 12.7851 9.70045 12.7504 9.75953L10.4327 12.5158C10.4218 12.53 10.4109 12.5431 10.401 12.5584C10.2776 12.7473 10.2048 12.9647 10.1899 13.1898C10.1749 13.4149 10.2183 13.6401 10.3157 13.8436C11.2662 15.7894 13.2262 17.7352 15.1938 18.6856C15.3987 18.7824 15.6252 18.8245 15.8511 18.8079C16.0771 18.7912 16.2949 18.7163 16.4834 18.5905L16.5238 18.5598L19.2396 16.2498C19.2977 16.2143 19.3634 16.1932 19.4313 16.188C19.4992 16.1829 19.5673 16.194 19.6301 16.2203L24.7937 18.5347C24.8808 18.571 24.9539 18.6344 25.002 18.7156C25.0501 18.7969 25.0706 18.8915 25.0606 18.9853Z" fill="black"/>
</svg>
