<svg width="22" height="22" viewBox="0 0 22 22" fill="none" xmlns="http://www.w3.org/2000/svg">
<path d="M18.9733 13.9331L14.9153 12.1172C14.758 12.0492 14.5862 12.0214 14.4155 12.0364C14.2447 12.0514 14.0804 12.1087 13.9374 12.2032C13.9259 12.2104 13.915 12.2185 13.9047 12.2272L11.7734 14.044C11.726 14.0729 11.6722 14.0897 11.6167 14.0928C11.5613 14.096 11.5059 14.0854 11.4555 14.062C10.0599 13.3883 8.61524 11.9548 7.94149 10.5755C7.91766 10.5255 7.9066 10.4704 7.9093 10.415C7.912 10.3597 7.92837 10.3059 7.95696 10.2584L9.77884 8.09192C9.78743 8.08161 9.79517 8.07044 9.8029 8.05927C9.89708 7.91644 9.95425 7.75243 9.96925 7.582C9.98425 7.41158 9.95662 7.2401 9.88884 7.08302L8.06954 3.03192C7.98171 2.82674 7.82969 2.6556 7.6363 2.54418C7.44291 2.43277 7.2186 2.3871 6.99704 2.41403C5.91558 2.55662 4.923 3.08801 4.2047 3.90895C3.4864 4.72988 3.0915 5.78423 3.09376 6.87505C3.09376 13.5094 8.49063 18.9063 15.125 18.9063C16.2158 18.9086 17.2702 18.5137 18.0911 17.7954C18.912 17.0771 19.4434 16.0845 19.586 15.003C19.6128 14.7825 19.5676 14.5592 19.4572 14.3664C19.3468 14.1736 19.177 14.0216 18.9733 13.9331ZM18.9063 14.9171C18.7849 15.833 18.3341 16.6733 17.6382 17.2809C16.9423 17.8886 16.0489 18.222 15.125 18.2188C8.87048 18.2188 3.78126 13.1296 3.78126 6.87505C3.77806 5.95117 4.11146 5.05776 4.71912 4.36184C5.32678 3.66593 6.1671 3.21515 7.08298 3.0938C7.09671 3.09295 7.11049 3.09295 7.12423 3.0938C7.19204 3.09438 7.25817 3.115 7.31429 3.15308C7.37042 3.19115 7.41402 3.24498 7.43962 3.30778L9.25376 7.35888C9.27493 7.40839 9.28417 7.46218 9.28073 7.51592C9.2773 7.56966 9.26129 7.62184 9.23399 7.66825L7.41298 9.83388C7.40438 9.84505 7.39579 9.85536 7.38806 9.86739C7.29104 10.0158 7.2339 10.1866 7.22216 10.3635C7.21042 10.5404 7.24447 10.7173 7.32102 10.8772C8.06782 12.406 9.60782 13.9348 11.1538 14.6816C11.3148 14.7577 11.4927 14.7908 11.6703 14.7777C11.8478 14.7646 12.019 14.7057 12.167 14.6068L12.1988 14.5828L14.3327 12.7678C14.3783 12.7399 14.4299 12.7233 14.4833 12.7192C14.5366 12.7152 14.5901 12.7239 14.6395 12.7446L18.6966 14.563C18.765 14.5915 18.8225 14.6414 18.8602 14.7052C18.898 14.769 18.9142 14.8433 18.9063 14.9171Z" fill="black"/>
</svg>
